<mxfile host="app.diagrams.net" modified="2023-04-07T14:36:08.621Z" agent="Mozilla/5.0 (Macintosh; Intel Mac OS X 10_15_7) AppleWebKit/537.36 (KHTML, like Gecko) Chrome/111.0.0.0 Safari/537.36" version="21.1.5" etag="wEgHBKKBhOr7mO2Upb4E" type="github">
  <diagram name="Page-1" id="nzlYBBM4rF_z0R2h8SWN">
    <mxGraphModel>
      <root>
        <mxCell id="0" />
        <mxCell id="1" parent="0" />
      </root>
    </mxGraphModel>
  </diagram>
</mxfile>
